<svg xmlns="http://www.w3.org/2000/svg" fill="none" viewBox="0 0 48 48" id="Earth-1--Streamline-Core" height="48" width="48"><desc>Earth 1 Streamline Icon: https://streamlinehq.com</desc><g id="earth-1--planet-earth-globe-world"><path id="Vector" stroke="#e07a5f" stroke-linecap="round" stroke-linejoin="round" d="M24 46.285714285714285c12.308228571428572 0 22.285714285714285 -9.977485714285713 22.285714285714285 -22.285714285714285C46.285714285714285 11.691942857142855 36.30822857142857 1.7142857142857142 24 1.7142857142857142 11.691942857142855 1.7142857142857142 1.7142857142857142 11.691942857142855 1.7142857142857142 24c0 12.308228571428572 9.977657142857142 22.285714285714285 22.285714285714285 22.285714285714285Z" stroke-width="2"></path><path id="Vector_2" stroke="#e07a5f" stroke-linecap="round" stroke-linejoin="round" d="M3.4285714285714284 32.57125714285714h6c1.591302857142857 0 3.1174285714285714 -0.6321599999999999 4.2426514285714285 -1.757382857142857C14.796445714285712 29.688685714285715 15.428571428571427 28.16252571428571 15.428571428571427 26.571257142857142v-5.142857142857142c0 -1.591302857142857 0.6321257142857143 -3.1174285714285714 1.7573485714285715 -4.2426514285714285 1.125222857142857 -1.125222857142857 2.6513485714285716 -1.7573485714285715 4.2426514285714285 -1.7573485714285715 1.591302857142857 0 3.1174285714285714 -0.6321599999999999 4.2426514285714285 -1.757382857142857C26.79644571428571 12.545794285714285 27.428571428571427 11.019702857142857 27.428571428571427 9.4284V1.954100571428571" stroke-width="2"></path><path id="Vector_3" stroke="#e07a5f" stroke-linecap="round" stroke-linejoin="round" d="M46.285714285714285 23.65714285714286c-1.7166857142857144 -0.8907085714285714 -3.6202285714285716 -1.3607657142857144 -5.554285714285714 -1.3714285714285714H33.42857142857142c-1.591302857142857 0 -3.1174285714285714 0.6321257142857143 -4.2426514285714285 1.7573485714285715C28.06069714285714 25.168285714285712 27.428571428571427 26.694411428571428 27.428571428571427 28.285714285714285c0 1.591302857142857 0.6321257142857143 3.1174285714285714 1.7573485714285715 4.2426514285714285C30.311142857142855 33.65358857142857 31.837268571428567 34.285714285714285 33.42857142857142 34.285714285714285c1.1365714285714286 0 2.2268571428571424 0.45154285714285713 3.0305142857142857 1.2551999999999999 0.8036571428571428 0.8036571428571428 1.2551999999999999 1.8939428571428572 1.2551999999999999 3.0305142857142857v2.9828571428571427" stroke-width="2"></path></g></svg>