<svg xmlns="http://www.w3.org/2000/svg" fill="none" viewBox="-1.715 -1.715 48 48" height="48" width="48" id="Earth-1--Streamline-Core.svg"><desc>Earth 1 Streamline Icon: https://streamlinehq.com</desc><g id="earth-1--planet-earth-globe-world"><path id="Vector" stroke="#3d405b" stroke-linecap="round" stroke-linejoin="round" d="M22.284999999999997 42.97821428571428c11.42870307142857 0 20.693214285714284 -9.264511214285713 20.693214285714284 -20.693214285714284C42.97821428571428 10.856456107142856 33.71370307142857 1.5917857142857141 22.284999999999997 1.5917857142857141 10.856456107142856 1.5917857142857141 1.5917857142857141 10.856456107142856 1.5917857142857141 22.284999999999997c0 11.42870307142857 9.264670392857141 20.693214285714284 20.693214285714284 20.693214285714284Z" stroke-width="3.43"></path><path id="Vector_2" stroke="#3d405b" stroke-linecap="round" stroke-linejoin="round" d="M3.1835714285714283 30.24376939285714h5.571249999999999c1.477591007142857 0 2.894662321428571 -0.5869868999999999 3.9394786285714285 -1.631803207142857C13.739116364285712 27.567181714285713 14.326071428571428 26.15007856428571 14.326071428571428 24.67251939285714v-4.775357142857143c0 -1.477591007142857 0.5869550642857142 -2.894662321428571 1.6317713714285713 -3.9394786285714285 1.044816307142857 -1.044816307142857 2.461887621428571 -1.6317713714285713 3.9394786285714285 -1.6317713714285713 1.477591007142857 0 2.894662321428571 -0.5869868999999999 3.9394786285714285 -1.631803207142857C24.881616364285712 11.649292735714285 25.468571428571426 10.232253257142856 25.468571428571426 8.754662249999999V1.814463801428571" stroke-width="3.43"></path><path id="Vector_3" stroke="#3d405b" stroke-linecap="round" stroke-linejoin="round" d="M42.97821428571428 21.966642857142855c-1.5940142142857143 -0.8270600214285714 -3.361533071428571 -1.2635276642857143 -5.157385714285714 -1.2734285714285714H31.039821428571425c-1.477591007142857 0 -2.894662321428571 0.5869550642857142 -3.9394786285714285 1.6317713714285713C26.05552649285714 23.369801964285713 25.468571428571426 24.786873278571427 25.468571428571426 26.264464285714283c0 1.477591007142857 0.5869550642857142 2.894662321428571 1.6317713714285713 3.9394786285714285C28.145159107142852 31.24875922142857 29.562230421428566 31.835714285714282 31.039821428571425 31.835714285714282c1.0553539285714286 0 2.0677296428571426 0.41927635714285716 2.8139587857142856 1.1655054999999999 0.7462291428571428 0.7462291428571428 1.1655054999999999 1.758604857142857 1.1655054999999999 2.8139587857142856v2.7697071428571425" stroke-width="3.43"></path></g></svg>