<svg xmlns="http://www.w3.org/2000/svg" fill="none" viewBox="-1.43 -1.43 40 40" height="40" width="40" id="New-Folder--Streamline-Flex.svg"><desc>New Folder Streamline Icon: https://streamlinehq.com</desc><g id="new-folder--empty-folder"><path id="Subtract" stroke="#3d405b" stroke-linecap="round" stroke-linejoin="round" d="M16.795158985714288 4.478394257142857c-0.3668370857142857 -0.9905768571428573 -1.2863704285714286 -1.6715387571428573 -2.3415974142857143 -1.7195554714285717 -3.811333328571429 -0.17346502285714288 -6.110803371428572 -0.12698696571428572 -9.168884442857143 0.0883136142857143 -1.2776690571428573 0.08995838571428573 -2.2935541714285717 1.096982957142857 -2.4397531285714287 2.3694258857142856C1.94992428 13.006401471428573 1.6529952857142858 20.82331032857143 2.585323358571429 28.630960714285717c0.31637178428571433 2.6494084285714288 2.4858252985714286 4.575117428571429 5.08114197 4.857646714285714 7.328464800000001 0.7979794285714287 14.551558114285715 0.7775524285714287 21.879465814285716 -0.020161714285714286 2.546742857142857 -0.27722357142857146 4.591034571428572 -2.293925571428572 4.894786714285715 -4.837485 0.5762005714285715 -4.825414500000001 0.729801 -9.771825814285716 0.3711347142857143 -15.839228442857143 -0.14856000000000003 -2.513661728571429 -2.119898142857143 -4.536491828571429 -4.629235714285715 -4.7442636 -3.566766428571429 -0.295263 -6.0458083714285715 -0.3121882285714286 -10.4294691 -0.4049321142857143 -1.086291942857143 -0.02300027142857143 -2.0488546285714286 -0.7092148285714287 -2.4261705 -1.7281242l-0.5318182714285715 -1.4360181Z" stroke-width="2.86"></path></g></svg>