<svg xmlns="http://www.w3.org/2000/svg" fill="none" viewBox="-1.43 -1.43 40 40" height="40" width="40" id="Pencil--Streamline-Core.svg"><desc>Pencil Streamline Icon: https://streamlinehq.com</desc><g id="pencil--change-edit-modify-pencil-write-writing"><path id="Vector" stroke="#3d405b" stroke-linecap="round" stroke-linejoin="round" d="M13.264285714285716 32.47097142857143 1.3264285714285715 35.81357142857143l3.3426 -11.937804085714285L26.528571428571432 2.122341424285714c0.24698100000000003 -0.2526740314285714 0.5422440000000001 -0.45343960714285714 0.8677495714285715 -0.5905047771428572 0.3257708571428572 -0.13706782285714286 0.6756827142857142 -0.20767361571428575 1.029043285714286 -0.20767361571428575 0.35336057142857147 0 0.7032724285714286 0.07060579285714286 1.029043285714286 0.20767361571428575 0.32550557142857145 0.13706517000000001 0.6207685714285716 0.3378307457142857 0.8677495714285715 0.5905047771428572L35.017714285714284 6.844424485714287c0.2485727142857143 0.2466096 0.44594528571428577 0.5400421285714286 0.5807104285714286 0.8632927714285714 0.13476514285714286 0.32327717142857143 0.2040047142857143 0.6700321285714287 0.2040047142857143 1.0202358 0 0.3502036714285714 -0.06923957142857144 0.6969586285714287 -0.2040047142857143 1.0202358 -0.13476514285714286 0.32327717142857143 -0.3321377142857143 0.6166831714285714 -0.5807104285714286 0.8632927714285714L13.264285714285716 32.47097142857143Z" stroke-width="2.86"></path></g></svg>