<svg xmlns="http://www.w3.org/2000/svg" fill="none" viewBox="-1.43 -1.43 40 40" height="40" width="40" id="Star-1--Streamline-Core.svg"><desc>Star 1 Streamline Icon: https://streamlinehq.com</desc><g id="star-1--reward-rating-rate-social-star-media-favorite-like-stars"><path id="Vector" stroke="#3d405b" stroke-linecap="round" stroke-linejoin="round" d="m19.869979585714287 2.8917204 4.218042857142858 8.515671428571428c0.09595384285714287 0.2161548 0.24684835714285713 0.4033669285714286 0.4376949 0.5430133285714286 0.1908465428571429 0.13961987142857143 0.4149599142857143 0.22681928571428575 0.6499765285714286 0.25284381428571434l9.311448985714286 1.3794857142857144c0.26979557142857147 0.03464631428571429 0.5239392857142857 0.14529698571428573 0.7329844285714285 0.31903260000000006 0.20904514285714285 0.17370908571428573 0.36450257142857145 0.40334040000000004 0.44780228571428576 0.6620205 0.083565 0.25870662857142857 0.09152357142857144 0.5358240857142857 0.02334514285714286 0.7989609857142858 -0.06791314285714287 0.2631634285714286 -0.2095757142857143 0.5014695857142858 -0.4082747142857143 0.6871430571428571l-6.711728571428571 6.658671428571428c-0.17110928571428574 0.16004687142857144 -0.2997728571428572 0.3603641142857143 -0.37378757142857144 0.5827796571428572 -0.07428000000000001 0.2223890142857143 -0.09152357142857144 0.4597932 -0.05066957142857143 0.6905917714285714l1.6182428571428573 9.364479600000001c0.04695557142857143 0.26926500000000003 0.017243571428571428 0.545958 -0.085422 0.7990405714285715 -0.10266557142857143 0.25308257142857143 -0.2743054285714286 0.4722085714285714 -0.4955537142857143 0.6327064285714286 -0.220983 0.16023257142857145 -0.48282 0.2552048571428571 -0.7552684285714286 0.2743054285714286 -0.2724484285714286 0.018835285714285718 -0.5448968571428572 -0.038997000000000004 -0.7860415714285715 -0.16739528571428575l-8.382948985714286 -4.430271428571428c-0.21464267142857144 -0.10531842857142858 -0.45061431428571436 -0.15996728571428573 -0.6897428571428572 -0.15996728571428573s-0.47507365714285715 0.054648857142857145 -0.6897428571428572 0.15996728571428573l-8.383028571428571 4.430271428571428c-0.2411712428571429 0.12839828571428571 -0.5134870285714286 0.18623057142857144 -0.7859619857142857 0.16739528571428575 -0.27247495714285713 -0.01910057142857143 -0.5341793142857143 -0.11407285714285714 -0.7552949571428572 -0.2743054285714286 -0.22114217142857145 -0.16049785714285714 -0.3928350857142857 -0.3796238571428572 -0.4955537142857143 -0.6327064285714286 -0.10269210000000001 -0.25308257142857143 -0.1323245142857143 -0.5297755714285715 -0.08547505714285715 -0.7990405714285715l1.6182428571428573 -9.470593885714287c0.04101317142857143 -0.23079857142857144 0.02366348571428572 -0.4682027571428572 -0.05045734285714286 -0.6905917714285714 -0.07412082857142857 -0.22241554285714288 -0.20270481428571432 -0.42273278571428574 -0.3739998 -0.5827796571428572l-6.791306327142858 -6.552557142857144c-0.20091944142857143 -0.1907404285714286 -0.3422185714285715 -0.4356787285714286 -0.4067785028571429 -0.7050763714285715 -0.06455993142857143 -0.26942417142857145 -0.04960842857142858 -0.5517942857142857 0.043037301428571435 -0.8128884857142858 0.09264838285714286 -0.2610942 0.2590170128571429 -0.4897174285714286 0.47895744000000007 -0.6582003857142857 0.21994042714285714 -0.1684564285714286 0.48401113285714287 -0.2695568142857143 0.76021866 -0.2909919l9.311528571428571 -1.3794857142857144c0.23504314285714287 -0.026024528571428573 0.45915651428571436 -0.11322394285714286 0.6500030571428571 -0.25284381428571434 0.1908465428571429 -0.1396464 0.34174105714285713 -0.3268585285714286 0.4376683714285714 -0.5430133285714286l4.218042857142858 -8.515671428571428c0.11486871428571428 -0.2480156142857143 0.29828725714285714 -0.4579972157142857 0.5286348428571429 -0.6051565071428572 0.23032105714285714 -0.14715929142857143 0.49794128571428575 -0.22535225571428572 0.7712651571428571 -0.22535225571428572 0.27332387142857145 0 0.5409706285714285 0.07819296428571429 0.7712916857142857 0.22535225571428572 0.23032105714285714 0.14715929142857143 0.4137396 0.35714089285714284 0.5286083142857143 0.6051565071428572v0Z" stroke-width="2.86"></path></g></svg>