<svg xmlns="http://www.w3.org/2000/svg" fill="none" viewBox="-1.43 -1.43 40 40" height="40" width="40" id="User-Circle-Single--Streamline-Core.svg"><desc>User Circle Single Streamline Icon: https://streamlinehq.com</desc><g id="user-circle-single--circle-geometric-human-person-single-user"><path id="Vector" stroke="#3d405b" stroke-linecap="round" stroke-linejoin="round" d="M18.57 21.222857142857144c3.662826385714286 0 6.632142857142858 -2.9693164714285714 6.632142857142858 -6.632142857142858S22.23282638571429 7.958571428571429 18.57 7.958571428571429 11.937857142857144 10.927887900000002 11.937857142857144 14.590714285714286 14.907173614285716 21.222857142857144 18.57 21.222857142857144Z" stroke-width="2.86"></path><path id="Vector_2" stroke="#3d405b" stroke-linecap="round" stroke-linejoin="round" d="M7.242246942857143 31.569000000000003c1.1838109714285716 -1.9432178571428573 2.8476033857142857 -3.549257571428572 4.831409957142857 -4.663457571428572 1.9838065714285715 -1.114518342857143 4.220907942857143 -1.699844742857143 6.496290042857143 -1.699844742857143 2.2753821 0 4.512483471428571 0.5853264 6.496290042857143 1.699844742857143 1.9838861571428572 1.1142 3.6474928714285717 2.720239714285715 4.831463014285714 4.663457571428572" stroke-width="2.86"></path><path id="Vector_3" stroke="#3d405b" stroke-linecap="round" stroke-linejoin="round" d="M18.57 35.81357142857143c9.523491857142858 0 17.24357142857143 -7.720079571428571 17.24357142857143 -17.24357142857143C35.81357142857143 9.046640785714287 28.09349185714286 1.3264285714285715 18.57 1.3264285714285715 9.046640785714287 1.3264285714285715 1.3264285714285715 9.046640785714287 1.3264285714285715 18.57c0 9.523491857142858 7.720212214285715 17.24357142857143 17.24357142857143 17.24357142857143Z" stroke-width="2.86"></path></g></svg>