<svg
    xmlns="http://www.w3.org/2000/svg"
    viewBox="-1 0 27 27"
    version="1.1"
    style="background-color: #3d405b; border-radius: 50%"
    id="baby-changing-table-icon"
  >
    <path
      d="M7.848 1.8383760000000002C7.572768 1.885056 7.479888 1.9084320000000001 7.343544 1.96536C6.835152 2.177616 6.445032 2.634432 6.321216000000001 3.1624800000000004C6.270576 3.378408 6.27132 3.737016 6.3228480000000005 3.948C6.375431999999999 4.163352000000001 6.541440000000001 4.5015600000000004 6.699816 4.716C6.873431999999999 4.951104 7.318536000000001 5.383656 7.5703439999999995 5.562L7.782144 5.712 8.004 5.712L8.225856 5.712 8.436816 5.562C8.718816 5.361504 9.086304 5.008512 9.2772 4.754784000000001C9.466392 4.50336 9.633216000000001 4.174104 9.685992 3.948C9.732744 3.74784 9.737712 3.402984 9.696696 3.206544C9.568152 2.590896 9.078432 2.065656 8.477688 1.899192C8.310599999999999 1.8528959999999999 7.961328 1.819152 7.848 1.8383760000000002M7.812 2.354448C7.50348 2.398536 7.136184 2.642136 6.960336000000001 2.919264C6.807288 3.1604880000000004 6.7434 3.570408 6.816552000000001 3.842016C6.9173279999999995 4.216296 7.218936 4.6173839999999995 7.702128000000001 5.01972C7.991904 5.261016000000001 8.010216 5.262096 8.270736 5.053656C8.664888 4.738272 9.004536 4.326288 9.134952 4.005312C9.313968000000001 3.564816 9.206232 3.0392639999999997 8.867472000000001 2.7005280000000003C8.707248 2.54028 8.40624 2.387064 8.184000000000001 2.352576C8.010528 2.325648 8.01348 2.325648 7.812 2.354448M5.71764 6.947928C5.315040000000001 7.020912 5.001576 7.149 4.64508 7.386191999999999C4.216152 7.671576 3.904824 8.033304000000001 3.684696 8.502C3.62736 8.624088 3.233832 9.695352 2.810208 10.88256C2.0511600000000003 13.009848 2.04 13.043807999999999 2.04 13.227144L2.04 13.413167999999999 3.728424 14.784839999999999L5.416848 16.156488 5.431704 17.108232C5.439888 17.63172 5.457864 18.1734 5.471640000000001 18.312C5.538984 18.988560000000003 5.731104 19.643856 6.057048 20.308584C6.4660079999999995 21.142632 7.098719999999999 21.725544 7.658615999999999 21.784056L7.8 21.79884 7.8 21.54648L7.8 21.294144 7.699007999999999 21.277992C7.379256 21.226848 7.013280000000001 20.911848 6.686400000000001 20.406336C6.422184000000001 19.997712000000003 6.160512 19.311384 6.046752000000001 18.72852C5.9676 18.322944 5.950848 18.056736 5.93556 16.962024L5.920920000000001 15.912047999999999 4.230912 14.5392C3.044496 13.575408000000001 2.543904 13.154952000000002 2.550936 13.128096000000001C2.605776 12.918384 4.108272 8.775216 4.17852 8.64C4.494888 8.031024 5.066088 7.601952 5.747688 7.461288000000001C5.924568 7.42476 6.073367999999999 7.416576 6.564 7.416336L7.164000000000001 7.416072 7.418640000000001 8.682024C7.68576 10.010136000000001 7.7315760000000004 10.17708 7.913544 10.485168C8.208744000000001 10.984968 8.770848 11.410632 9.348 11.571408C9.536496 11.623896 9.570359999999999 11.625048 11.202 11.63364L12.864 11.642424 12.864 11.390304L12.864 11.138184 11.238 11.129760000000001C9.768072 11.122176 9.598176 11.117280000000001 9.468 11.07888C8.890728000000001 10.908576 8.42004 10.481784 8.218248 9.945696C8.182464 9.850584 8.036208 9.181728 7.870248000000001 8.354304C7.712808000000001 7.569288 7.5840000000000005 6.923616 7.5840000000000005 6.919488C7.5840000000000005 6.91536 7.203288000000001 6.912984 6.738 6.91416C6.151272 6.915672000000001 5.838552 6.926016000000001 5.71764 6.947928M18.432479999999998 7.662C18.024192000000003 8.27268 17.757984 9.013488 17.663256 9.802728C17.633544 10.050144 17.631528000000003 10.765248000000001 17.659896 10.986L17.679192 11.136000000000001 16.488648 11.136000000000001C15.192432 11.136000000000001 15.129864 11.130552000000002 14.904072000000001 10.998264C14.76696 10.917936 14.581128000000001 10.727832 14.517216000000001 10.602528C14.411472 10.395288 14.400528000000001 10.31112 14.400264 9.703416L14.4 9.122808000000001 14.25 9.043992000000001C14.062152000000001 8.94528 13.687992 8.578488 13.519632 8.328C13.384368 8.12676 13.259687999999999 7.886736 13.173648000000002 7.662C13.142088 7.579512 13.105416 7.5120000000000005 13.092192 7.5120000000000005C13.078944 7.5120000000000005 12.968928 7.545048 12.847680000000002 7.58544L12.62724 7.65888 12.687216000000001 7.81944C12.901992 8.394456 13.30452 8.965488 13.738560000000001 9.310848L13.891896 9.432864 13.901520000000001 9.942432C13.909896 10.3842 13.918104000000001 10.473 13.963224000000002 10.609728C14.12688 11.10552 14.602056 11.519808000000001 15.117263999999999 11.615904C15.194927999999999 11.630376 15.835992 11.64 16.722672 11.64L18.198816 11.64 18.178608 11.25C18.16752 11.035512 18.15852 10.6278 18.158616000000002 10.344C18.15876 9.912096 18.167544 9.781056 18.212471999999998 9.540000000000001C18.314928 8.990568000000001 18.558888 8.381400000000001 18.849888 7.9484639999999995C18.923640000000002 7.838712 18.98364 7.741512 18.983208 7.732463999999999C18.982392 7.715304000000001 18.615552 7.44 18.593496000000002 7.44C18.586584000000002 7.44 18.514104000000003 7.539912 18.432479999999998 7.662M20.34624 9.061392C19.939848 9.159888 19.534632 9.51552 19.260432 10.014384000000002C19.186728000000002 10.148496 19.176000000000002 10.189128 19.176000000000002 10.334568C19.176000000000002 10.487592000000001 19.184664 10.516392 19.28256 10.688136C19.562568 11.179512 19.937136000000002 11.499576000000001 20.3586 11.6076C20.555808 11.658144 20.883576 11.64108 21.096 11.569248C21.6324 11.387832 22.00728 10.878864 22.00728 10.332C22.00728 9.501864 21.170352 8.861640000000001 20.34624 9.061392M20.441352 9.560592C20.291712 9.602784 20.087064 9.745296 19.95684 9.897984000000001C19.80876 10.071648 19.68 10.274328 19.68 10.333728C19.68 10.48368 20.077920000000002 10.937520000000001 20.307192 11.049096C20.712096000000003 11.246136 21.22548 11.067744000000001 21.424584000000003 10.6608C21.477263999999998 10.553088 21.49008 10.493592 21.489864 10.357416C21.48972 10.264224 21.476760000000002 10.1448 21.461088 10.092C21.400992 9.889656 21.140736 9.635712 20.932368 9.576048C20.782416 9.533136 20.563248 9.526224 20.441352 9.560592M12.864 13.932L12.864 14.184000000000001 17.184 14.184000000000001L21.504 14.184000000000001 21.504 18.072L21.504 21.96 21.756 21.96L22.008 21.96 22.008 17.82L22.008 13.68 17.436 13.68L12.864 13.68 12.864 13.932M3.303384 16.836864C3.242136 18.25692 2.9397360000000003 19.600152 2.37216 20.973192C2.2936799999999997 21.163056 2.197632 21.381456 2.158728 21.45852C2.119824 21.535584 2.088 21.609168 2.088 21.622056C2.088 21.643248 2.467728 21.864 2.50416 21.864C2.52744 21.864 2.6927280000000002 21.525336 2.8310880000000003 21.19416C3.417672 19.790184 3.750624 18.317928 3.8072399999999997 16.877664L3.8235119999999996 16.464 3.5714880000000004 16.464L3.3194640000000004 16.464 3.303384 16.836864"
      stroke="none"
      fill="#e07a5f"
      fill-rule="evenodd"
    ></path>
  </svg>