<svg
    xmlns="http://www.w3.org/2000/svg"
    viewBox="0 0 26 26"
    version="1.1"
    style="background-color: #3d405b; border-radius: 50%"
    id="entrance-icon"
  >
    <path
      d="M8.688 3.3000000000000003L8.688 4.968 8.94 4.968L9.192 4.968 9.192 3.552L9.192 2.136 15.552 2.136L21.912 2.136 21.912 12.024000000000001L21.912 21.912 20.928 21.912L19.944 21.912 19.944 22.164L19.944 22.416 21.18 22.416L22.416 22.416 22.416 12.024000000000001L22.416 1.6320000000000001 15.552 1.6320000000000001L8.688 1.6320000000000001 8.688 3.3000000000000003M17.988 4.41972C17.76984 4.440144 17.475984 4.535496 17.280264 4.649376C17.088624 4.760904 16.743648 5.10084 16.636295999999998 5.2839599999999995C16.22796 5.980608 16.342920000000003 6.803736 16.983552 7.770336C17.082096 7.91904 17.219664 8.101872 17.289264 8.176632C17.404944 8.300928 17.432136000000003 8.317056 17.605895999999998 8.364624000000001L17.796 8.416656 18 8.347272C18.584880000000002 8.14836 19.260648 7.70676 19.563672 7.325424C19.839864 6.977904 19.968 6.612960000000001 19.968 6.173976000000001C19.968 5.892744 19.921560000000003 5.690304 19.79868 5.436C19.459728000000002 4.7344800000000005 18.768696000000002 4.346640000000001 17.988 4.41972M17.831328 4.965048C17.410512 5.099736 17.105712 5.3886 16.964256000000002 5.7867120000000005C16.920144 5.910912000000001 16.91016 5.987832 16.911648000000003 6.192C16.913808 6.485472000000001 16.976496 6.714023999999999 17.149248 7.058304000000001C17.266848 7.2926400000000005 17.55672 7.7354639999999995 17.648688 7.821288C17.735784 7.902552000000001 17.842344 7.881912000000001 18.183864 7.71768C18.889704000000002 7.378296 19.311024 6.967968 19.429824 6.504264000000001C19.482312 6.299328 19.466952000000003 5.9695920000000005 19.39572 5.772C19.285680000000003 5.466888 19.02768 5.1756 18.756 5.049816C18.46884 4.91688 18.090264 4.882176 17.831328 4.965048M9.823632 6.9397199999999994C9.500856 6.974664 9.14952 7.1280719999999995 8.876928000000001 7.35312C8.599896000000001 7.581840000000001 8.393735999999999 7.913808 8.301 8.280552C8.230416 8.559624000000001 8.245968 8.985888 8.338175999999999 9.3C8.461248000000001 9.719232 8.792472 10.315416 9.110736 10.690512C9.250584 10.855344 9.254088 10.857576 9.45936 10.913016L9.66672 10.969007999999999 9.877224 10.892832C10.281048 10.74672 10.81212 10.443984 11.103144 10.194C11.573039999999999 9.790392 11.802744 9.351864 11.826264 8.813568C11.839968 8.499624 11.811432 8.320368 11.707944000000001 8.07072C11.385936 7.293864 10.647384 6.85056 9.823632 6.9397199999999994M9.698688 7.477944000000001C9.49944 7.531512 9.291384 7.653672 9.129696000000001 7.812C8.766024 8.168112 8.66652 8.683272 8.853912000000001 9.24C8.971344 9.588864000000001 9.229872 10.046064000000001 9.477504 10.3428C9.578232 10.463496 9.649872 10.454664 10.019568000000001 10.275960000000001C10.87968 9.860184 11.288304 9.39972 11.32224 8.808C11.344896 8.413032000000001 11.221776 8.097096 10.933872 7.811472C10.674288 7.553952 10.389504 7.43856 10.02096 7.441584C9.914832 7.442448 9.769824 7.458816 9.698688 7.477944000000001M16.20564 9.611928C15.407544 9.756599999999999 14.704272 10.227624 14.267976 10.909656C14.222688 10.980432 13.79076 11.792016 13.308144 12.713184L12.430608000000001 14.388 12.437304000000001 14.597952000000001L12.444 14.807904 14.088000000000001 15.905952000000001L15.732000000000001 17.004 15.746952000000002 17.796C15.755184 18.2316 15.774432000000001 18.7014 15.789743999999999 18.84C15.866807999999999 19.537176 16.063032 20.198232 16.390704 20.864328C16.826928 21.751224 17.445024 22.31904 18.066 22.4034L18.192 22.420512 18.192 22.168248000000002L18.192 21.915984 18.068376 21.889464C17.756352 21.822552 17.377655999999998 21.502992 17.079672000000002 21.055152C16.69704 20.480112 16.393728 19.614216 16.295328 18.816C16.281503999999998 18.7038 16.263696 18.188856 16.255776 17.671656L16.241352 16.731336 14.609904 15.643656C13.712616 15.045456 12.967920000000001 14.549351999999999 12.955008000000001 14.541192C12.936264 14.529408000000002 14.279568 11.923776 14.635104000000002 11.282256C14.957304 10.700928000000001 15.560927999999999 10.264536000000001 16.235471999999998 10.125312C16.379687999999998 10.095552000000001 16.554216 10.080528 16.758 10.080312L17.064 10.08 17.064 11.053008C17.064 11.847696000000001 17.070984000000003 12.059928000000001 17.102064000000002 12.211008C17.208216 12.726696 17.536824 13.156991999999999 17.974608 13.353456C18.230352 13.468224000000001 18.973536 13.572936 19.644000000000002 13.588680000000002L19.956 13.596 19.962792 13.353384L19.969608 13.110743999999999 19.857456 13.095384C19.795776 13.086912 19.657704000000003 13.079880000000001 19.55064 13.079736C19.4436 13.079592 19.204800000000002 13.063488000000001 19.02 13.043952C18.3324 12.971231999999999 18.103056 12.896880000000001 17.891616000000003 12.678144C17.766863999999998 12.549096 17.63352 12.290136000000002 17.594328 12.100824000000001C17.577264 12.018431999999999 17.568 11.551392 17.568 10.774824L17.568 9.576 16.974 9.57816C16.596384 9.579552000000001 16.316471999999997 9.591840000000001 16.20564 9.611928M5.064 10.465776C4.338696 10.501944 3.61416 10.659648 3.178848 10.876104L3.018144 10.956 2.336976 12.31812L1.6558080000000002 13.680216000000001 1.8873840000000002 13.79412C2.014776 13.856760000000001 2.1233999999999997 13.8972 2.128824 13.884C2.134224 13.870800000000001 2.426952 13.2876 2.7793200000000002 12.588000000000001L3.42 11.316 3.5602080000000003 11.260512C3.754728 11.183496 4.1854320000000005 11.075136 4.5 11.024064000000001C4.889448 10.960848 5.900352000000001 10.961592 6.204 11.02536C7.002864 11.193071999999999 7.807824000000001 11.651136000000001 8.455848 12.30672L8.643696 12.496775999999999 7.801848000000001 14.180328C7.338840000000001 15.106272 6.96 15.869184 6.96 15.875688C6.96 15.890592 7.394544 16.109688 7.403856000000001 16.099488C7.407648 16.095384 7.8222000000000005 15.268775999999999 8.325096 14.262599999999999L9.239448 12.4332 9.128688 12.294599999999999C8.342400000000001 11.310864 7.008816 10.557 5.912808 10.476672C5.534016 10.448904 5.42916 10.44756 5.064 10.465776M4.86 13.44C4.444152 14.2716 4.09584 14.951976 4.085952 14.951976C4.0760879999999995 14.951952000000002 3.987 14.935464000000001 3.888 14.915328C3.789 14.895192000000002 3.5298 14.872464 3.3120000000000003 14.864856000000001C2.9772480000000003 14.853144 2.8714560000000002 14.858640000000001 2.628 14.900496000000002C2.346648 14.948856000000001 1.8 15.105623999999999 1.8 15.137952000000002C1.8 15.149784 1.959264 15.553560000000001 1.9795200000000002 15.593064C1.980936 15.595824 2.078832 15.567072000000001 2.197056 15.529128000000002C2.666616 15.378432000000002 3.1216320000000004 15.329400000000001 3.5648880000000003 15.381672C3.7773360000000005 15.406728000000001 3.829104 15.423336 4.058568 15.54024C4.307256 15.666936 4.315896 15.669408000000002 4.347456 15.623472C4.379376 15.576984000000001 4.383432 15.577584000000002 4.561584 15.655632C5.497728 16.065648000000003 6.19608 16.945415999999998 6.4225200000000005 18C6.483192 18.2826 6.4846319999999995 18.958008 6.425159999999999 19.252368C6.3379199999999996 19.684152 6.168456 20.092392 5.925624 20.455776C5.7636 20.698224 5.390112 21.091176 5.157 21.264432000000003C4.805016 21.52608 4.314624 21.740712000000002 3.832512 21.844152C3.33396 21.95112 2.62392 21.902976000000002 2.167704 21.731256000000002C2.081112 21.698664 2.002584 21.672 1.9932 21.672C1.9746000000000001 21.672 1.789056 22.12644 1.803288 22.13712C1.8080880000000001 22.140719999999998 1.893 22.172328 1.992 22.207392C2.6503200000000002 22.440504 3.416664 22.474152 4.104 22.300104C4.83072 22.116096000000002 5.414712 21.782856000000002 5.9066160000000005 21.271488C6.50952 20.644728 6.865200000000001 19.905648000000003 6.961296 19.080000000000002C6.990048000000001 18.833088 6.980208 18.171984000000002 6.946032000000001 18.054000000000002L6.930408 18 7.665191999999999 18L8.4 18 8.400216 18.486C8.400528 19.176528 8.438880000000001 19.822176 8.497704 20.127504C8.729496 21.33048 9.440856 22.311936 10.149048 22.405872L10.272 22.422192000000003 10.272 22.168992L10.272 21.915816 10.194 21.898968C9.994128000000002 21.85584 9.737304 21.648696 9.537744 21.36972C9.310944000000001 21.052680000000002 9.074496 20.465064 8.988744 20.005319999999998C8.937096 19.728408 8.906016000000001 19.054104000000002 8.904888 18.186L8.904 17.496 7.862928 17.496L6.821856000000001 17.496 6.766896 17.346C6.427175999999999 16.418904 5.706672 15.632544 4.813296 15.213888C4.700375999999999 15.160992 4.6080000000000005 15.112775999999998 4.6080000000000005 15.106776C4.6080000000000005 15.100752 4.9374 14.437104000000001 5.34 13.632C5.7426 12.826896 6.072 12.15972 6.072 12.149424C6.072 12.129312 5.678976 11.928 5.639688 11.928C5.626704 11.928 5.275848 12.608400000000001 4.86 13.44M14.196 17.9442C13.238544000000001 17.982936 12.052488 18.257088 11.313264 18.610488C11.166552000000001 18.68064 11.040168 18.74832 11.032368 18.760920000000002C11.024592 18.77352 11.073648 18.874752 11.141376 18.985896C11.209104 19.097064 11.265288 19.189728 11.266248000000001 19.19184C11.267208 19.193952000000003 11.3748 19.143192000000003 11.505336 19.079016C11.954448 18.858264 12.810167999999999 18.61644 13.496064 18.516432000000002C13.785648000000002 18.474216000000002 14.499264 18.430104 14.595408 18.448488L14.657376000000001 18.46032 14.669568 18.21216C14.677848000000001 18.04308 14.673167999999999 17.958384 14.65488 17.94636C14.62908 17.92944 14.567664 17.929152000000002 14.196 17.9442"
        stroke="#f4f1de"
      stroke-width="1"
      fill="#e07a5f"
      fill-rule="evenodd"
    ></path>
  </svg>