<svg
    xmlns="http://www.w3.org/2000/svg"
    viewBox="-1 -1 16 16"
    version="1.1"
    style="background-color: #3d405b; border-radius: 50%"
    id="gastro-icon"
  >
    <path
      d="M1.715 1.1538380000000001C1.662822 1.1771340000000001 1.602566 1.2403440000000001 1.5828959999999999 1.29241C1.572802 1.319122 1.568 1.712536 1.568 2.513196C1.568 3.773098 1.57234 3.8715040000000003 1.6396519999999999 4.1370000000000005C1.860796 5.00934 2.5341120000000004 5.683006 3.402 5.900244000000001C3.47515 5.918556000000001 3.56965 5.937694 3.612 5.942776C3.6543499999999995 5.947872 3.700032 5.955138000000001 3.7135000000000002 5.95896C3.7367400000000006 5.965526 3.738 6.138846 3.738 9.346498C3.738 12.710516 3.73814 12.727386000000001 3.7662799999999996 12.782546C3.80695 12.862262 3.887898 12.911612000000002 3.980172 12.912942C4.068078 12.914216 4.128152 12.883583999999999 4.191516 12.805198L4.235 12.751396 4.238612 9.358608C4.242028 6.147092 4.243526 5.965442 4.266611999999999 5.958918C4.280024 5.955124 4.32565 5.947872 4.368 5.942804C4.701144 5.902904 5.116776 5.72649 5.439 5.488196C5.944848 5.114116 6.290088 4.529798 6.386212 3.8850000000000002C6.400828 3.787 6.405 3.4865459999999997 6.405 2.532992L6.405 1.306984 6.366486 1.248772C6.299678 1.14779 6.16798 1.1068959999999999 6.057828 1.152914C5.997348000000001 1.1781840000000001 5.925206 1.26259 5.915686 1.319206C5.9114439999999995 1.344392 5.9059420000000005 1.9099500000000003 5.90345 2.576C5.898998000000001 3.7689820000000003 5.898466 3.789058 5.86775 3.925586C5.6959420000000005 4.68923 5.162626 5.24027 4.424 5.417286000000001C4.35855 5.432966 4.290832 5.4458459999999995 4.2735 5.445902L4.242 5.446 4.242 3.394552C4.242 1.1911479999999999 4.245066 1.291052 4.174968 1.2135200000000002C4.112696000000001 1.144654 3.9856460000000005 1.1151840000000002 3.89641 1.148896C3.8427759999999997 1.169154 3.780588 1.2295639999999999 3.7572780000000003 1.284052C3.741206 1.321628 3.738 1.6708020000000001 3.738 3.387552L3.738 5.446 3.6995 5.445902C3.6323840000000005 5.445734 3.432366 5.39175 3.285184 5.334098C2.7222720000000002 5.11357 2.2942780000000003 4.632544 2.132844 4.039C2.075514 3.8281880000000004 2.072 3.740366 2.072 2.5196359999999998C2.072 1.262604 2.0733580000000003 1.289162 2.004968 1.2135200000000002C1.9400360000000003 1.141728 1.8046000000000002 1.1138540000000001 1.715 1.1538380000000001M8.225 1.1538380000000001C8.172822 1.1771340000000001 8.112566000000001 1.2403440000000001 8.092896 1.29241C8.082452 1.3200180000000001 8.078 3.0378740000000004 8.078 7.029470000000001C8.078 12.718062 8.078042 12.727204 8.10628 12.782546C8.137178 12.843110000000001 8.213785999999999 12.900244 8.283324 12.91458C8.384754 12.935482 8.508192 12.866126000000001 8.55568 12.761574000000001C8.580067999999999 12.707898 8.581398 12.632676 8.581692 11.294500000000001L8.582 9.884 10.4125 9.883916000000001C11.704839999999999 9.88386 12.259366 9.879296 12.298678 9.86839C12.37124 9.848244000000001 12.453097999999999 9.76563 12.472726 9.692732C12.483870000000001 9.651362 12.484107999999999 9.521344000000001 12.473621999999999 9.224236000000001C12.406912 7.335566000000001 11.99296 5.548788 11.301528 4.165C10.630214 2.821476 9.706199999999999 1.830066 8.560286 1.223796C8.378328 1.127532 8.314012 1.11412 8.225 1.1538380000000001M8.582 5.598669999999999L8.582 9.38 10.278212 9.38L11.974438000000001 9.38 11.96538 9.109534C11.92716 7.96817 11.693682 6.647718 11.345586 5.6042559999999995C10.853346 4.128642 10.149034 3.034094 9.177 2.234106C9.02888 2.1122080000000003 8.759758 1.9194280000000001 8.6485 1.8555320000000002L8.582 1.8173400000000002 8.582 5.598669999999999"
      stroke="none"
      fill="#e07a5f"
      fill-rule="evenodd"
    ></path>
  </svg>