<svg
    xmlns="http://www.w3.org/2000/svg"
    viewBox="-1 -1 16 16"
    version="1.1"
    style="background-color: #3d405b; border-radius: 50%"
    id="lift-icon"
  >
    <path
      d="M4.081 1.47056C3.26172 1.5393000000000001 2.574684 2.1509739999999997 2.398536 2.968476C2.378642 3.0608340000000003 2.373084 3.147256 2.373392 3.36C2.373826 3.657472 2.392166 3.76964 2.479064 4.006394C2.5943680000000002 4.32054 2.812544 4.6200280000000005 3.075926 4.825688L3.1948 4.918508 3.1059 4.951842C2.866318 5.041652 2.528484 5.236868 2.30594 5.41408C1.735846 5.868058 1.3349980000000001 6.52813 1.191372 7.249452C1.14009 7.506968 1.132222 7.6775720000000005 1.136702 8.436036L1.141 9.165072 1.175762 9.215793999999999C1.194872 9.243682000000002 1.23354 9.279438 1.261666 9.295258C1.310764 9.322852000000001 1.33413 9.324 1.8468520000000002 9.324C2.261336 9.324 2.38231 9.32792 2.387252 9.3415C2.390752 9.351132 2.478882 10.04255 2.583098 10.878C2.6873139999999998 11.71345 2.778874 12.416348 2.78656 12.440008C2.803262 12.491444 2.8756980000000003 12.56451 2.93041 12.585146C2.985444 12.605894000000001 5.512668 12.605852 5.56759 12.585104000000001C5.620146 12.565252000000001 5.683272 12.504744 5.705434 12.453C5.715318000000001 12.4299 5.81021 11.716432000000001 5.916288 10.8675L6.10918 9.324 6.6462900000000005 9.324C7.0879199999999996 9.324 7.190358 9.320388 7.222613999999999 9.303714000000001C7.28021 9.273935999999999 7.347339999999999 9.191378 7.35735 9.138038C7.362166 9.112418 7.363510000000001 8.73901 7.360346000000001 8.30823C7.354088000000001 7.454356 7.350167999999999 7.403424 7.2652019999999995 7.073892000000001C7.105042 6.452768 6.744178 5.878068000000001 6.258812 5.471214C6.007848 5.260836 5.659766 5.05218 5.392856 4.952122L5.304712 4.919082 5.434856 4.814152C5.767944 4.545604 6.0042919999999995 4.1613739999999995 6.096818000000001 3.738C6.128528 3.59289 6.1403300000000005 3.2469500000000004 6.118728000000001 3.095554C6.008422 2.32225 5.434954 1.6907940000000001 4.682734 1.51431C4.576586 1.489404 4.2678720000000006 1.451842 4.221 1.458114C4.2133 1.45915 4.1503 1.46475 4.081 1.47056M4.097492 1.9752880000000002C3.8235959999999998 2.004212 3.5479920000000003 2.124402 3.344866 2.303518C3.172372 2.455628 3.032386 2.652454 2.962078 2.84172C2.882082 3.057096 2.8773500000000003 3.0859500000000004 2.8781339999999997 3.353C2.878834 3.5854980000000003 2.881802 3.61452 2.9165360000000002 3.7280320000000002C3.07328 4.2402500000000005 3.46374 4.599336 3.978198 4.704392C4.592042 4.829734 5.213754 4.52193 5.487902 3.9569319999999997C5.5983480000000005 3.7293339999999997 5.62121 3.6222900000000005 5.619894 3.339C5.618886 3.122 5.615442 3.09001 5.5808480000000005 2.9764C5.4355139999999995 2.499154 5.0777719999999995 2.142378 4.61853 2.0167C4.526802 1.9915980000000002 4.284616 1.957732 4.228 1.9621000000000002C4.21645 1.962996 4.15772 1.9689320000000001 4.097492 1.9752880000000002M10.605 3.712044C10.561404 3.73569 8.554728 5.742240000000001 8.532104 5.7848C8.506386000000001 5.83317 8.50619 5.95427 8.531754 6.0032000000000005C8.595930000000001 6.126036 8.732906 6.176772 8.858948000000002 6.124356000000001C8.895054 6.109348 9.187682 5.82631 9.81414 5.200454000000001L10.717293999999999 4.29821 11.62014 5.202484C12.139064000000001 5.722234 12.542152000000002 6.1151159999999996 12.568052 6.126386C12.632144 6.154288 12.707492 6.150676 12.778500000000001 6.116306000000001C12.914706 6.0503659999999995 12.957546 5.879048 12.869387999999999 5.752908000000001C12.807816 5.66482 10.880253999999999 3.7454620000000003 10.8262 3.718414C10.77531 3.692962 10.647 3.689266 10.605 3.712044M4.088 5.245184C3.4647900000000003 5.2877019999999995 2.893548 5.537182 2.447494 5.9616620000000005C2.040724 6.348762 1.780758 6.838734 1.670032 7.4270000000000005C1.65396 7.512358 1.6473659999999999 7.69111 1.6422700000000001 8.178576L1.6355920000000002 8.818152000000001 2.16062 8.822576L2.685634 8.827 2.744602 8.869C2.8555240000000004 8.948002 2.8395360000000003 8.860054 3.0499560000000003 10.549L3.241812 12.089 4.2456119999999995 12.092597999999999L5.249426000000001 12.096182 5.256342 12.064598C5.26015 12.04721 5.345928 11.3652 5.446952 10.549C5.54799 9.732800000000001 5.636512 9.041662 5.643694 9.01313C5.65929 8.951138 5.71291 8.883980000000001 5.773166000000001 8.850996C5.811904 8.829786 5.877802 8.826482 6.339718 8.822576L6.86245 8.818152000000001 6.85615 8.192575999999999C6.851362 7.717206000000001 6.844684 7.536746000000001 6.828304 7.441C6.697516 6.676208 6.262228 6.024998 5.614 5.624388000000001C5.177536 5.3546640000000005 4.597222 5.210450000000001 4.088 5.245184M8.70541 8.778406C8.639148 8.78983 8.564234 8.847146 8.534974 8.90883C8.50885 8.963878000000001 8.504944 9.06528 8.526714 9.12359C8.548722000000001 9.182558 10.535406 11.168542 10.605 11.201148C10.672941999999999 11.232984 10.753484 11.235252000000001 10.813011999999999 11.207014C10.837344 11.195464000000001 11.315052 10.727682000000001 11.874576 10.167514C12.783707999999999 9.257332000000002 12.89358 9.142644 12.907551999999999 9.08929C12.956986 8.900584 12.799150000000001 8.742846 12.6 8.781948C12.540206000000001 8.79368 12.490422 8.840818 11.6235 9.706410000000002L10.71 10.61851 9.7965 9.706158C9.106104 9.016644000000001 8.872738000000002 8.791678 8.841 8.78507C8.76771 8.769796 8.758078 8.76932 8.70541 8.778406"
        stroke="#f4f1de"
      stroke-width="1"
      fill="#e07a5f"
      fill-rule="evenodd"
    ></path>
  </svg>