<svg
    xmlns="http://www.w3.org/2000/svg"
    viewBox="-1 -1 16 16"
    version="1.1"
    style="background-color: #3d405b; border-radius: 50%"
    id="lift-disability-icon"
  >
    <path
      d="M10.829 1.154146C10.805900000000001 1.164618 10.376352 1.584898 9.874438 2.0881000000000003C8.881628000000001 3.083444 8.931258 3.0256100000000004 8.950018 3.165414C8.963849999999999 3.268594 9.081128000000001 3.372936 9.184000000000001 3.3736080000000004C9.301152 3.374378 9.291058000000001 3.383226 10.132612 2.5434639999999997L10.934224 1.7435600000000002 11.735612000000001 2.54324C12.602212 3.407992 12.577278 3.38688 12.709228000000001 3.367098C12.828998 3.349136 12.939234 3.196816 12.914104 3.0840180000000004C12.909316 3.062556 12.902162 3.0324 12.898214000000001 3.017C12.886341999999999 2.9707860000000004 11.103764 1.191092 11.039 1.1608100000000001C10.973284000000001 1.130066 10.888038 1.127364 10.829 1.154146M5.89729 3.324958C5.5699559999999995 3.3843039999999998 5.296634 3.525872 5.06373 3.756704C4.863348 3.955308 4.7285 4.191082 4.651388000000001 4.47762C4.618684 4.599126 4.61496 4.638116 4.61496 4.8580000000000005C4.61496 5.078094 4.61867 5.116818 4.651514 5.2388840000000005C4.772222 5.687514 5.094964 6.075034 5.506088 6.264986C5.611382 6.313636 5.833366 6.384 5.881568000000001 6.384C5.907272 6.384 5.908 6.417404 5.908 7.6025599999999995C5.908 8.770664 5.909091999999999 8.823262 5.934516 8.873059999999999C5.94909 8.901620000000001 5.97387 8.936620000000001 5.989578 8.95083C6.059284 9.013872 6.073704 9.01474 7.056952 9.015384000000001C7.844102 9.015902 7.999922 9.019276000000001 8.059772 9.037042000000001C8.289190000000001 9.105166 8.465254 9.305604 8.498672000000001 9.536716C8.505686 9.585268000000001 8.511566 10.22532 8.51172 10.95906C8.512 12.269544 8.512504 12.2941 8.54028 12.348546C8.613261999999999 12.491598 8.801044 12.52496 8.924272 12.416754C9.022314 12.330682000000001 9.017638 12.413114 9.012738 10.856972C9.008356 9.469054 9.008048 9.456076 8.977892 9.349158000000001C8.888334 9.031596 8.676472 8.771742 8.393 8.631728C8.159648 8.516480000000001 8.204839999999999 8.5211 7.2555000000000005 8.515626000000001L6.412 8.510768 6.412 7.44961L6.412 6.388452 6.4925 6.3707139999999995C7.088228000000001 6.239380000000001 7.549696 5.768224 7.679308000000001 5.159C7.707826 5.024908000000001 7.712012 4.728542 7.6874 4.585C7.667968 4.4717400000000005 7.60046 4.26643 7.549304 4.165C7.368620000000001 3.806866 7.029988 3.512614 6.65 3.383562C6.42656 3.3076820000000002 6.122998000000001 3.2840499999999997 5.89729 3.324958M5.929728000000001 3.8302320000000005C5.728324 3.875256 5.569046 3.9639460000000004 5.417496 4.115496C5.194434 4.338572 5.0953 4.60278 5.11378 4.925032C5.134822000000001 5.292 5.349862 5.619138 5.68295 5.790904C5.840688 5.87223 5.963608 5.900356 6.16 5.900034C6.458788 5.899544000000001 6.682984 5.806136 6.895560000000001 5.59356C7.108332 5.380788 7.201067999999999 5.157572 7.201152 4.8580000000000005C7.201207999999999 4.662266 7.175293999999999 4.54629 7.094794 4.382C7.046228 4.2828800000000005 7.012978 4.239536 6.895742 4.122468C6.743254 3.970218 6.642566 3.9070919999999996 6.461 3.8498880000000004C6.330436 3.808756 6.069084 3.7990820000000003 5.929728000000001 3.8302320000000005M9.093 5.493837999999999C9.040822 5.517134 8.980566000000001 5.580344 8.960896 5.63241C8.939714 5.68848 8.942472 5.777337999999999 8.967014 5.82904C8.978564 5.8533859999999995 9.395932 6.2806939999999996 9.894514 6.778604C10.715152000000002 7.59815 10.806852000000001 7.685426 10.862726 7.7000839999999995C10.945242 7.721728000000001 11.011658 7.70714 11.087846 7.650636C11.187386 7.5768 12.860078 5.892614 12.88812 5.838C12.926242 5.76373 12.920558000000002 5.655342 12.874918 5.586392C12.811904 5.491178 12.683118 5.448996 12.576410000000001 5.488644C12.554598 5.4967500000000005 12.179174000000001 5.860806 11.7355 6.304102L10.934000000000001 7.104902 10.1395 6.311802C9.702532 5.87559 9.32484 5.508636 9.3002 5.496344000000001C9.246118000000001 5.46938 9.150400000000001 5.468218 9.093 5.493837999999999M3.7030000000000003 7.219842C3.49083 7.239330000000001 3.131156 7.32725 2.937144 7.407078C2.573718 7.556612 2.278472 7.748818 2.0039599999999997 8.01458C1.752324 8.258194 1.590162 8.481718 1.429036 8.807064C1.025136 9.622606 1.036126 10.582152 1.458534 11.382C1.9361860000000002 12.286484 2.809324 12.84801 3.843 12.91549C4.011252 12.926480000000002 4.319083999999999 12.903758 4.525416000000001 12.865132000000001C5.399394 12.701500000000001 6.171158 12.112548 6.551902 11.318664C6.660836 11.091542 6.6951920000000005 10.989034 6.6887799999999995 10.910396C6.674192000000001 10.731798000000001 6.488314000000001 10.628212000000001 6.328616 10.709678C6.25905 10.745182000000002 6.22986 10.787294 6.167882 10.941559999999999C5.88168 11.654076 5.252688 12.188862 4.508 12.352872C4.032742 12.457536 3.5824599999999998 12.423796 3.1337040000000003 12.249874C2.479484 11.996334 1.970808 11.455696 1.749608 10.77881C1.668422 10.53038 1.645546 10.369449999999999 1.646246 10.052C1.646778 9.809505999999999 1.651734 9.742208 1.678236 9.618C1.7819760000000002 9.131556 1.988546 8.747438 2.329992 8.405992C2.764244 7.971726 3.254426 7.754082000000001 3.885126 7.715484C4.047484 7.705544 4.080006 7.699496000000001 4.120521999999999 7.671734C4.286156 7.558236000000001 4.275866 7.326704 4.10123 7.237608C4.05657 7.214830000000001 4.021948 7.210406 3.9030600000000004 7.212352C3.82382 7.213654 3.7338 7.217014 3.7030000000000003 7.219842"
      stroke="none"
      fill="#e07a5f"
      fill-rule="evenodd"
    ></path>
  </svg>