<svg
    xmlns="http://www.w3.org/2000/svg"
    viewBox="-1 -1 16 16"
    version="1.1"
    style="background-color: #3d405b; border-radius: 50%"
    id="location-icon"
  >
    <path
      d="M6.643 1.1436879999999998C6.0319 1.184162 5.4094180000000005 1.32566 4.83574 1.55449C3.08098 2.2544340000000003 1.750056 3.7841580000000006 1.30382 5.614C1.197406 6.050352 1.150058 6.41291 1.138144 6.88282C1.109948 7.995162 1.37053 9.008328 1.9420659999999998 10.008572000000001C2.02272 10.149748 2.2736419999999997 10.515834 2.392502 10.665774C3.131422 11.597908 4.091136 12.266324000000001 5.217394 12.633222000000002C6.5099160000000005 13.054272 7.9761500000000005 13.001884 9.226252 12.489988C9.505678 12.375566000000001 9.66203 12.301044 9.891 12.173167999999999C11.192258 11.4464 12.18035 10.242918 12.634972000000001 8.831059999999999C13.00894 7.669675999999999 13.00831 6.368810000000001 12.633222000000002 5.217394C12.266464000000001 4.091584 11.59753 3.131128 10.665774 2.392502C10.515834 2.2736419999999997 10.149748 2.02272 10.008572000000001 1.9420659999999998C9.044224 1.39104 8.059982 1.127532 7 1.13659C6.84215 1.137948 6.6815 1.14114 6.643 1.1436879999999998M6.587 1.65242C5.641594 1.735972 4.765278 2.0463660000000004 3.9922400000000002 2.571478C3.118416 3.16505 2.430806 4.017846 2.030098 5.005C1.748768 5.698084 1.623664 6.391378 1.642326 7.154C1.65585 7.70714 1.732822 8.173186 1.891442 8.662346000000001C2.2283660000000003 9.70137 2.8288680000000004 10.568908 3.682 11.249112C4.693752 12.055792 6.006349999999999 12.476352 7.287966 12.404504C7.718564000000001 12.380354 8.009428 12.335946 8.393 12.235748C9.437232 11.963000000000001 10.367098 11.385612 11.086894000000001 10.563C12.153624 9.343908 12.608372 7.713678 12.33267 6.097C12.185096000000001 5.231618 11.799605999999999 4.372452 11.249112 3.682C10.35083 2.5553640000000004 9.092944 1.8514580000000003 7.658 1.6724260000000002C7.451024 1.6465960000000002 6.792086 1.63429 6.587 1.65242M6.497162 5.488728C4.357626000000001 6.20291 3.8519460000000003 6.3763 3.8203060000000004 6.406624C3.700298 6.521606 3.715278 6.707204 3.8520720000000006 6.800038C3.885588 6.822788 4.376484 7.11928 4.94298 7.45892L5.97296 8.076446 6.6196340000000005 9.154334C6.975304 9.747164 7.282814 10.245199999999999 7.302988000000001 10.261062C7.4162479999999995 10.350158 7.582876000000001 10.319652000000001 7.667296 10.194394C7.6843200000000005 10.169124 8.093105999999999 8.963752000000001 8.575686 7.515816000000001C9.357642 5.16964 9.452128 4.8768579999999995 9.443952 4.825086C9.424058 4.699142 9.316412 4.6048800000000005 9.19506 4.607106C9.155132 4.6078339999999995 8.250760000000001 4.9033739999999995 6.497162 5.488728M6.672931999999999 5.962124L4.588878 6.658036 5.459664 7.180446C6.32996 7.702562 6.330478 7.702898 6.381732 7.782544C6.409928 7.826364 6.647172 8.219470000000001 6.90893 8.656116C7.170688 9.092748 7.388051999999999 9.450000000000001 7.391958 9.450000000000001C7.395878000000001 9.450000000000001 7.710248 8.516018 8.090586 7.3745C8.470924 6.232968 8.785 5.291132 8.788556 5.2815C8.792098 5.271882 8.786442 5.2645040000000005 8.775998 5.265106C8.765554 5.265708 7.8191679999999995 5.579378 6.672931999999999 5.962124"
      stroke="none"
      fill="#e07a5f"
      fill-rule="evenodd"
    ></path>
  </svg>