<svg
    xmlns="http://www.w3.org/2000/svg"
    viewBox="-1 0 27 27"
    version="1.1"
    style="background-color: #3d405b; border-radius: 50%"
    id="ramp-up-icon"
  >
    <path
      d="M7.08 2.092296C6.468912 2.148384 5.981088 2.492712 5.709072 3.06C5.569824 3.350424 5.536536 3.512568 5.549112 3.8393759999999997C5.567928 4.327944 5.735040000000001 4.680456 6.1250160000000005 5.054184C6.375888 5.294616 6.619632 5.456328 7.037616 5.659656C7.346304 5.809824 7.3672320000000004 5.824344 7.367616 5.888568C7.367928000000001 5.942832 7.3764 5.95392 7.408272 5.94168C7.430447999999999 5.933184000000001 7.562735999999999 5.898144 7.702272 5.863824C7.948944000000001 5.803152 7.959504000000001 5.797776000000001 8.082312 5.670192C8.240447999999999 5.505912 8.513615999999999 5.099544 8.65452 4.819008C9.092736 3.946464 9.024864 3.1685039999999995 8.461128 2.601888C8.075472 2.214264 7.612488000000001 2.043432 7.08 2.092296M6.940944000000001 2.629368C6.414312 2.771112 6.048 3.243144 6.048 3.7800000000000002C6.048 4.114416 6.172824 4.387392 6.45096 4.661184C6.55272 4.76136 6.7116 4.8938880000000005 6.804 4.955664C7.013304000000001 5.095608 7.48296 5.326296 7.595856000000001 5.344632000000001C7.670400000000001 5.356728 7.6901280000000005 5.347968 7.763328 5.270352000000001C7.9788 5.041896 8.287104 4.475712 8.37744 4.142568C8.472984 3.790128 8.43348 3.44052 8.26572 3.154272C8.186088 3.018384 7.954752 2.802408 7.810704000000001 2.729472C7.540488000000001 2.592624 7.216104 2.555304 6.940944000000001 2.629368M7.908 6.998640000000001C6.792 7.305408 6.697896 7.340280000000001 6.330840000000001 7.583016000000001C5.82156 7.919832 5.403408 8.450184 5.199528 9.017928000000001C5.062176 9.400464 5.028288 9.681576 5.004936 10.632C4.997328 10.9422 4.984896 11.267856 4.977336 11.355672L4.963608000000001 11.515344 4.779792 11.580528C3.828768 11.917776 2.985504 12.679152 2.507664 13.632C2.200224 14.245056 2.0733840000000003 14.854032 2.095248 15.612C2.114424 16.276272 2.219832 16.70604 2.50728 17.292C2.8314 17.95272 3.3144 18.509136 3.90612 18.903456000000002C4.929936 19.585704 6.115392 19.785263999999998 7.306272 19.475856C7.986192 19.299192 8.588688000000001 18.954408 9.127272 18.433728000000002C9.941184 17.646912 10.370616 16.625544 10.374216 15.468C10.375656000000001 15.007536 10.338312 14.730623999999999 10.220448 14.328000000000001C10.179888 14.189400000000001 10.145184 14.060952000000002 10.143336 14.042568C10.140912 14.018232 10.41408 13.935456 11.147664 13.738224C11.701872 13.589231999999999 12.15672 13.469280000000001 12.158448 13.471656C12.160152 13.474056 12.212664 13.6704 12.27516 13.908C12.516456 14.825616000000002 12.700992 15.257952000000001 13.05372 15.732000000000001C13.418232 16.221888 13.873824 16.581792 14.528568 16.897104000000002C14.788104000000002 17.022072 15.385536 17.256 15.445224000000001 17.256C15.454152 17.256 15.568344000000002 16.883592 15.580248000000001 16.815696C15.586704000000001 16.778856 15.538319999999999 16.75404 15.292584000000002 16.668120000000002C14.96892 16.554936 14.493623999999999 16.329528 14.268 16.182168C13.637952000000002 15.770712000000001 13.195584 15.183864 12.951744 14.436C12.896351999999998 14.266128 12.528 12.911112 12.528 12.877248000000002C12.528 12.84624 12.386184 12.880536 11.193456000000001 13.200000000000001C10.50348 13.384800000000002 9.930192 13.535976000000002 9.919488000000001 13.535952000000002C9.908760000000001 13.535904 9.870048 13.479216000000001 9.833447999999999 13.409952C9.723096 13.20108 9.456216000000001 12.843744 9.242280000000001 12.618383999999999C8.651832 11.996448 7.896144 11.578728 7.032 11.396664C6.821447999999999 11.352288 6.699048 11.343264000000001 6.288 11.341776000000001C6.0174 11.340792 5.727072 11.348808 5.642808 11.35956L5.489616000000001 11.379096 5.506032 10.75956C5.528688 9.9054 5.554776 9.602976 5.627424 9.352272C5.749632 8.930568000000001 5.90796 8.660592 6.226128000000001 8.331408C6.496224 8.051928 6.781728 7.867152 7.127904 7.7478240000000005C7.293408 7.690752 7.971191999999999 7.506672000000001 7.9791360000000005 7.5166319999999995C7.9823759999999995 7.520688000000001 8.171327999999999 8.2206 8.399016 9.072000000000001C8.626728 9.9234 8.817168 10.624368 8.822232000000001 10.629719999999999C8.832264 10.640304 9.235056 10.53912 9.279192 10.514904C9.312312 10.496736 8.352960000000001 6.886896 8.316 6.890664C8.3028 6.892008 8.119200000000001 6.940583999999999 7.908 6.998640000000001M5.664 11.867448C4.8821520000000005 11.99712 4.221384 12.335304 3.672 12.886968C3.3469200000000003 13.213392 3.164616 13.461504 2.978616 13.830576C2.733552 14.316863999999999 2.621328 14.759592 2.599368 15.326976C2.584056 15.722472 2.6127599999999997 16.037856 2.69172 16.342056C2.874288 17.045112 3.223824 17.637144 3.7473599999999996 18.130008C4.274616 18.626328 4.92216 18.942096 5.674488 19.069752C5.993976 19.123968 6.6530640000000005 19.106064 6.978479999999999 19.034352C7.673976000000001 18.881088000000002 8.255544 18.571032 8.75688 18.086256000000002C9.08844 17.765664 9.292248 17.492304 9.478608000000001 17.11836C10.0818 15.907848 9.989928 14.525064 9.231816 13.404C9.02688 13.100952000000001 8.5722 12.651096 8.266224 12.448632C7.872816 12.188352 7.409088 11.994144 6.936 11.891544C6.683232 11.836728 5.934744 11.822544 5.664 11.867448M21.048000000000002 15.830544C20.891184 15.928824 19.674816 16.543848 19.248 16.740648C14.668655999999999 18.85236 8.756088 20.522376 2.754 21.399408C2.2389360000000003 21.474648000000002 2.285832 21.4344 2.3316000000000003 21.762C2.3539440000000003 21.921936 2.3671680000000004 21.96 2.400264 21.96C2.45604 21.96 3.592368 21.785784 4.212 21.682248C8.97144 20.88696 13.403832000000001 19.68156 17.328 18.115344C18.68208 17.574912 20.18052 16.88844 21.059496000000003 16.405848C21.217608000000002 16.31904 21.37152 16.248 21.401496 16.248L21.456 16.248 21.456 19.2L21.456 22.152 21.708000000000002 22.152L21.96 22.152 21.96 18.948L21.96 15.744 21.57 15.745895999999998L21.18 15.747816 21.048000000000002 15.830544"
      stroke="none"
      fill="#e07a5f"
      fill-rule="evenodd"
    ></path>
  </svg>