<svg
    xmlns="http://www.w3.org/2000/svg"
    viewBox="-1 -1 16 16"
    version="1.1"
    style="background-color: #3d405b; border-radius: 50%"
    id="toilet-icon"
  >
    <path
      d="M3.472 1.358238C2.941316 1.393504 2.5211200000000002 1.5686440000000001 2.20822 1.885016C1.96014 2.13584 1.809738 2.440984 1.7262 2.863C1.6902620000000002 3.0444679999999997 1.6902620000000002 3.633532 1.7262 3.815C1.8123839999999998 4.250344 1.966342 4.554662 2.230592 4.812066C2.301222 4.880848 2.410324 4.970798 2.473058 5.011944L2.5871299999999997 5.08676 2.471 5.15599C2.03518 5.415788 1.685712 5.814284 1.491196 6.273232C1.340528 6.628734 1.2751059999999999 7.057259999999999 1.315076 7.4270000000000005C1.3374059999999999 7.63357 2.1299460000000003 11.481148000000001 2.181662 11.634C2.3538620000000003 12.143054 2.763096 12.515272 3.309726 12.660074000000002C3.406634 12.685736 3.460408 12.689978 3.682 12.689418C3.917046 12.688830000000001 3.953446 12.685358 4.07547 12.651954C4.6363520000000005 12.49843 5.072228 12.059404 5.2078180000000005 11.51143C5.260388000000001 11.299022 6.018824 7.590422 6.033272 7.475146C6.076392 7.131292 6.03085 6.7414060000000005 5.906348 6.38848C5.729206 5.8863840000000005 5.32931 5.4074860000000005 4.871020000000001 5.1486540000000005L4.762226 5.087222 4.888548 5.004104C5.189744 4.805948 5.434296 4.479734 5.549767999999999 4.122132C5.67112 3.746288 5.697118000000001 3.204502 5.61323 2.8000000000000003C5.4945379999999995 2.227722 5.185376000000001 1.80747 4.706758 1.567818C4.3720740000000005 1.4002379999999999 3.9410139999999996 1.327074 3.472 1.358238M9.593346 1.359036C9.184476 1.3850900000000002 8.857911999999999 1.487584 8.569862 1.680266C8.02529 2.044518 7.752724 2.712472 7.81172 3.53815C7.85057 4.0817000000000005 8.01801 4.49001 8.33 4.8020000000000005C8.418564 4.890564 8.585836 5.0197 8.664642 5.0603560000000005L8.712284 5.084926 8.602566000000001 5.154926000000001C8.288224 5.355448 8.05546 5.594232000000001 7.801094 5.977104C7.670908000000001 6.1730480000000005 7.455965999999999 6.590878 7.364616 6.82556C7.167384 7.332332000000001 7.014 7.94108 6.921936 8.582462C6.866677999999999 8.96742 6.88352 9.164596000000001 6.9894300000000005 9.372902000000002C7.1687140000000005 9.725562 7.538636000000001 9.952922000000001 7.9345 9.953762C7.998032 9.953888 8.05 9.95806 8.05 9.96303C8.05 9.99257 8.292731999999999 11.474554 8.309322 11.546318C8.43073 12.071374 8.870707999999999 12.517246000000002 9.406054 12.657722000000001C9.545088 12.694206000000001 9.863742 12.708178 10.025722 12.684868C10.564848 12.607336 11.044166 12.208406 11.226908 11.685156000000001C11.269118 11.56428 11.302774000000001 11.37668 11.477116 10.290000000000001L11.529910000000001 9.961 11.676448 9.95232C11.82804 9.943346 11.894526 9.930004 12.026 9.882152000000001C12.43844 9.732058 12.722738000000001 9.300466 12.693128000000002 8.86935C12.673836 8.588202 12.588072 8.096956 12.486544 7.686C12.196758 6.5129399999999995 11.678674 5.622134 11.037572 5.194616C10.953656 5.138672000000001 10.883417999999999 5.091478 10.881472 5.089742C10.879526 5.08802 10.929926 5.052488 10.993472 5.01081C11.387362000000001 4.752356 11.63442 4.35757 11.741814 3.815C11.761708 3.7144940000000006 11.766748 3.6182019999999997 11.766748 3.339C11.766748 2.962946 11.756192 2.873654 11.680620000000001 2.611C11.5486 2.152108 11.236344 1.7755500000000002 10.810954 1.562274C10.602102 1.45754 10.314108 1.382206 10.059000000000001 1.365574C9.803388 1.3489 9.761514 1.3483120000000002 9.593346 1.359036M3.479 1.8623500000000002C2.730252 1.924412 2.294796 2.332414 2.209844 3.051468C2.189978 3.2195519999999997 2.20325 3.6549940000000003 2.2321459999999997 3.7829820000000005C2.262806 3.9188379999999996 2.305212 4.039238 2.361576 4.150426C2.430904 4.287178 2.464252 4.333112 2.5762099999999997 4.445938C2.75422 4.625362 3.004106 4.743536000000001 3.3148500000000003 4.795266C3.4990479999999997 4.825926 3.966676 4.817946 4.128544000000001 4.781378C4.447058 4.709432 4.686262 4.570258 4.85975 4.355946C5.063254 4.104534 5.1563680000000005 3.7852080000000004 5.15627 3.339C5.156144 2.776634 5.000422 2.388386 4.674964 2.139116C4.394726 1.9244679999999998 3.95556 1.822842 3.479 1.8623500000000002M9.604000000000001 1.862686C8.975358 1.910048 8.563548 2.201906 8.394442 2.719948C8.28058 3.068744 8.28058 3.609256 8.394442 3.9580520000000003C8.550346000000001 4.435676 8.923446 4.72759 9.473394 4.802238C9.641926 4.825128 10.104486000000001 4.812528 10.240986000000001 4.78135C10.506874 4.720618 10.71168 4.6180959999999995 10.868816 4.467078C11.02801 4.3141 11.120144000000002 4.164006 11.191768000000001 3.9410000000000003C11.296908 3.613596 11.296782 3.0567740000000003 11.191516 2.733556C11.154626 2.620324 11.080916 2.4654420000000004 11.023502 2.380574C10.920755999999999 2.228702 10.689798 2.0487319999999998 10.503416000000001 1.97533C10.266312000000001 1.881936 9.921618 1.8387740000000001 9.604000000000001 1.862686M3.36301 5.355658C2.667308 5.4827639999999995 2.119278 5.95952 1.8992680000000002 6.6290000000000004C1.8162900000000002 6.881518 1.787324 7.197806000000001 1.82483 7.441896C1.844654 7.57092 2.599408 11.257050000000001 2.632812 11.388034000000001C2.681182 11.577636 2.772392 11.734449999999999 2.918398 11.879C3.0806020000000003 12.03958 3.2446960000000002 12.128956 3.462508 12.175324000000002C3.611384 12.207006 3.851036 12.19414 3.997 12.14661C4.307492 12.045516000000001 4.564672 11.808482 4.675398 11.521370000000001C4.705932 11.442186 4.827368 10.878126 5.115852 9.475522C5.3348960000000005 8.41043 5.5217540000000005 7.485842 5.531064000000001 7.420854C5.55114 7.2807699999999995 5.540948 6.999776 5.510204 6.846C5.354734 6.0684260000000005 4.762086 5.49332 3.973172 5.354482000000001C3.830204 5.329324 3.503738 5.329954 3.36301 5.355658M9.499 5.349526C9.287208 5.380032 9.000628 5.491332 8.822688 5.61218C8.262870000000001 5.992336 7.8136660000000004 6.814542 7.552271999999999 7.937468C7.470498 8.288756 7.392 8.783754 7.392 8.948086C7.392 9.107154 7.484526000000001 9.262568 7.63658 9.358902C7.754613999999999 9.433676 7.786239999999999 9.440228000000001 8.07219 9.449006C8.331918 9.457 8.340962000000001 9.458274000000001 8.395996 9.494688C8.430226 9.517339999999999 8.463952 9.556035999999999 8.481284 9.592576C8.501724 9.635626 8.550388 9.90465 8.650516 10.528C8.727824000000002 11.00925 8.801436 11.437636000000001 8.814105999999999 11.479972C8.914667999999999 11.815902000000001 9.21102 12.093424 9.555 12.173784000000001C9.704282000000001 12.208658 9.968826 12.196436 10.109344 12.148164C10.270162 12.092934 10.382008 12.020862000000001 10.514112 11.887372C10.636934 11.763247999999999 10.700676 11.663260000000001 10.753456000000002 11.51185C10.768954 11.467386000000001 10.847074000000001 11.026596000000001 10.927042 10.532312C11.007010000000001 10.038027999999999 11.082022 9.615102 11.093712 9.592478C11.122804 9.53624 11.190339999999999 9.482004 11.252934 9.464616C11.281564000000001 9.456664 11.401278 9.450126000000001 11.518948 9.450084C11.698008 9.450014 11.746882 9.445282 11.818786 9.421062000000001C11.972366 9.369318 12.084589999999999 9.27087 12.148094 9.132185999999999C12.197402 9.02447 12.200986 8.939672 12.166616 8.694C12.023942 7.674086 11.75202 6.852734 11.357864 6.251126C10.942862000000002 5.617681999999999 10.447122 5.329954 9.780666 5.335708C9.671956000000002 5.336646 9.5452 5.342862 9.499 5.349526"
      stroke="none"
      fill="#e07a5f"
      fill-rule="evenodd"
    ></path>
  </svg>